<svg width="24" height="28" viewBox="0 0 24 28" fill="none" xmlns="http://www.w3.org/2000/svg">
<path d="M15.8213 23.7933C15.9981 24.0996 16.0461 24.4635 15.9545 24.8051C15.863 25.1466 15.6396 25.4379 15.3333 25.6147L13.6667 26.5773C13.1599 26.8699 12.5851 27.0239 12 27.0239C11.4149 27.0239 10.8401 26.8699 10.3333 26.5773L8.66668 25.6133C8.36294 25.4353 8.14196 25.1443 8.05196 24.8039C7.96197 24.4635 8.01026 24.1013 8.18631 23.7964C8.36236 23.4915 8.65187 23.2686 8.99166 23.1763C9.33145 23.0841 9.69394 23.13 10 23.304L11.6667 24.2667C11.768 24.3252 11.883 24.356 12 24.356C12.117 24.356 12.232 24.3252 12.3333 24.2667L14 23.304C14.3063 23.1272 14.6702 23.0793 15.0117 23.1708C15.3533 23.2623 15.6445 23.4871 15.8213 23.7933ZM22.392 12.8253C22.7456 12.8253 23.0848 12.9658 23.3348 13.2159C23.5849 13.4659 23.7253 13.805 23.7253 14.1587V18.8453C23.7253 19.4304 23.5713 20.0052 23.2787 20.512C22.9862 21.0187 22.5654 21.4394 22.0587 21.732L18 24.076C17.8483 24.1635 17.6808 24.2204 17.5071 24.2432C17.3335 24.266 17.157 24.2544 16.9878 24.209C16.8186 24.1636 16.66 24.0854 16.5211 23.9787C16.3821 23.872 16.2656 23.7391 16.178 23.5873C16.0905 23.4356 16.0337 23.2681 16.0108 23.0945C15.988 22.9208 15.9996 22.7443 16.045 22.5751C16.0904 22.4059 16.1686 22.2473 16.2753 22.1084C16.382 21.9695 16.515 21.8529 16.6667 21.7653L20.7253 19.4227C20.8267 19.3642 20.9108 19.28 20.9694 19.1787C21.0279 19.0773 21.0587 18.9624 21.0587 18.8453V14.1587C21.0587 13.805 21.1992 13.4659 21.4492 13.2159C21.6993 12.9658 22.0384 12.8253 22.392 12.8253ZM1.60801 12.8253C1.96163 12.8253 2.30077 12.9658 2.55082 13.2159C2.80087 13.4659 2.94135 13.805 2.94135 14.1587V18.8453C2.94135 18.9624 2.97216 19.0773 3.03067 19.1787C3.08918 19.28 3.17334 19.3642 3.27468 19.4227L7.33335 21.7653C7.63709 21.9434 7.85807 22.2344 7.94806 22.5748C8.03806 22.9152 7.98976 23.2773 7.81371 23.5823C7.63766 23.8872 7.34816 24.1101 7.00837 24.2023C6.66858 24.2946 6.30609 24.2487 6.00001 24.0747L1.94135 21.7333C1.43463 21.4408 1.01384 21.02 0.721283 20.5133C0.428722 20.0066 0.274694 19.4318 0.27468 18.8467V14.16C0.27468 13.8064 0.415155 13.4672 0.665204 13.2172C0.915252 12.9671 1.25439 12.8253 1.60801 12.8253ZM16.8333 7.952L16.9907 8.02933L19.0093 9.17334C19.1923 9.27724 19.3481 9.42298 19.464 9.59863C19.5799 9.77429 19.6525 9.97488 19.676 10.184L19.684 10.344L19.6667 12.664C19.6649 12.8696 19.6156 13.0721 19.5226 13.2555C19.4297 13.4389 19.2955 13.5984 19.1307 13.7213L19 13.808L15.3333 15.924V20.16C15.3332 20.366 15.2853 20.5691 15.1935 20.7535C15.1016 20.9379 14.9683 21.0985 14.804 21.2227L14.6747 21.3107L12.6747 22.484C12.4962 22.5887 12.2959 22.6504 12.0895 22.6643C11.883 22.6782 11.6762 22.6439 11.4853 22.564L11.3253 22.484L9.32535 21.3107C9.1476 21.2063 8.99646 21.0622 8.88379 20.8896C8.77113 20.7171 8.70001 20.5207 8.67601 20.316L8.66668 20.16V15.924L5.00001 13.808C4.82169 13.705 4.66966 13.562 4.55584 13.3904C4.44203 13.2187 4.36952 13.023 4.34401 12.8187L4.33335 12.6627L4.31601 10.3427C4.31464 10.1325 4.36297 9.92502 4.45704 9.7371C4.55112 9.54918 4.68828 9.38616 4.85735 9.26134L4.99068 9.17334L7.00801 8.02933C7.1843 7.92909 7.38114 7.87038 7.58354 7.85767C7.78594 7.84496 7.98857 7.87859 8.17601 7.956L8.33335 8.03333L12 10.1507L15.6667 8.03333C15.8423 7.93223 16.0386 7.87247 16.2408 7.85861C16.4429 7.84475 16.6456 7.87714 16.8333 7.95333V7.952ZM16.34 10.7253L12.6667 12.8453C12.49 12.9475 12.2922 13.0077 12.0885 13.0213C11.8848 13.035 11.6808 13.0017 11.492 12.924L11.332 12.844L7.66135 10.724L6.98801 11.1067L6.99468 11.88L10.6667 14C10.8463 14.1037 10.9992 14.2478 11.1133 14.4209C11.2274 14.5941 11.2995 14.7914 11.324 14.9973L11.3333 15.1547V19.396L12 19.788L12.6667 19.396V15.1547C12.6666 14.9473 12.7149 14.7429 12.8077 14.5575C12.9006 14.3721 13.0353 14.2109 13.2013 14.0867L13.3333 14L17.0053 11.88L17.012 11.1067L16.3387 10.7253H16.34ZM19.496 15.604L19.5053 15.6933V17.5627C19.5056 17.7702 19.4574 17.975 19.3646 18.1606C19.2718 18.3463 19.1369 18.5077 18.9707 18.632L18.8387 18.7187L17.2187 19.6533C17.1644 19.6848 17.1035 19.703 17.0409 19.7066C16.9783 19.7102 16.9158 19.699 16.8583 19.674C16.8008 19.649 16.75 19.6107 16.71 19.5625C16.67 19.5142 16.6419 19.4571 16.628 19.396L16.6187 19.3067V17.436C16.6188 17.2289 16.6672 17.0247 16.76 16.8395C16.8528 16.6544 16.9875 16.4934 17.1533 16.3693L17.2867 16.2813L18.9053 15.3467C18.9596 15.3152 19.0205 15.297 19.0831 15.2934C19.1457 15.2898 19.2083 15.301 19.2657 15.326C19.3232 15.3511 19.374 15.3893 19.414 15.4375C19.454 15.4858 19.4821 15.5429 19.496 15.604ZM5.09335 15.3467L6.71335 16.2813C6.91603 16.3984 7.08435 16.5667 7.20137 16.7694C7.3184 16.972 7.38001 17.202 7.38001 17.436V19.3067C7.38006 19.3769 7.36161 19.4459 7.32652 19.5068C7.29143 19.5676 7.24094 19.6181 7.18012 19.6533C7.11931 19.6884 7.05031 19.7069 6.98008 19.7069C6.90984 19.7069 6.84084 19.6885 6.78001 19.6533L5.16001 18.72C4.95713 18.6029 4.78869 18.4343 4.67165 18.2314C4.55462 18.0285 4.49312 17.7983 4.49335 17.564V15.6933C4.4933 15.6231 4.51175 15.5541 4.54684 15.4932C4.58193 15.4324 4.63242 15.3819 4.69323 15.3467C4.75405 15.3116 4.82305 15.2931 4.89328 15.2931C4.96352 15.2931 5.03252 15.3116 5.09335 15.3467ZM20.3307 5.27067L22.0573 6.268C22.5641 6.56056 22.9848 6.98133 23.2774 7.48805C23.57 7.99476 23.724 8.56956 23.724 9.15467V11.0787C23.724 11.4323 23.5835 11.7714 23.3335 12.0215C23.0834 12.2715 22.7443 12.412 22.3907 12.412C22.0371 12.412 21.6979 12.2715 21.4479 12.0215C21.1978 11.7714 21.0573 11.4323 21.0573 11.0787V9.15467C21.0573 9.03765 21.0265 8.92269 20.968 8.82134C20.9095 8.72 20.8254 8.63585 20.724 8.57733L18.9973 7.58C18.6936 7.40193 18.4726 7.11095 18.3826 6.77056C18.2926 6.43016 18.3409 6.06799 18.517 5.76308C18.693 5.45816 18.9825 5.23525 19.3223 5.143C19.6621 5.05075 20.0246 5.09665 20.3307 5.27067ZM5.42801 5.79333C5.60482 6.09957 5.65273 6.4635 5.56121 6.80507C5.46969 7.14663 5.24624 7.43785 4.94001 7.61467L3.27335 8.57733C3.172 8.63585 3.08785 8.72 3.02933 8.82134C2.97082 8.92269 2.94002 9.03765 2.94001 9.15467V11.0787C2.94001 11.4323 2.79954 11.7714 2.54949 12.0215C2.29944 12.2715 1.9603 12.412 1.60668 12.412C1.25306 12.412 0.913919 12.2715 0.663871 12.0215C0.413822 11.7714 0.273346 11.4323 0.273346 11.0787V9.15467C0.273262 8.5692 0.42738 7.99404 0.720193 7.48706C1.01301 6.98008 1.43418 6.55917 1.94135 6.26667L3.60801 5.304C3.91425 5.1272 4.27818 5.07929 4.61974 5.1708C4.96131 5.26232 5.25253 5.48577 5.42935 5.792L5.42801 5.79333ZM12.6667 5.72L14.2867 6.65467C14.3476 6.68974 14.3982 6.74025 14.4334 6.80111C14.4686 6.86197 14.4871 6.93103 14.4871 7.00133C14.4871 7.07164 14.4686 7.1407 14.4334 7.20156C14.3982 7.26242 14.3476 7.31293 14.2867 7.348L12.6667 8.28C12.464 8.39703 12.2341 8.45863 12 8.45863C11.766 8.45863 11.536 8.39703 11.3333 8.28L9.71335 7.34533C9.65242 7.31026 9.60181 7.25975 9.56662 7.19889C9.53143 7.13803 9.5129 7.06897 9.5129 6.99867C9.5129 6.92837 9.53143 6.85931 9.56662 6.79845C9.60181 6.73759 9.65242 6.68707 9.71335 6.652L11.3333 5.72C11.536 5.60298 11.766 5.54137 12 5.54137C12.2341 5.54137 12.464 5.60298 12.6667 5.72ZM13.6667 1.424L17.7253 3.76667C18.0318 3.94348 18.2554 4.23477 18.347 4.57646C18.4387 4.91815 18.3908 5.28225 18.214 5.58867C18.0372 5.89508 17.7459 6.11871 17.4042 6.21035C17.0625 6.30199 16.6984 6.25415 16.392 6.07733L12.3333 3.732C12.232 3.67349 12.117 3.64268 12 3.64268C11.883 3.64268 11.768 3.67349 11.6667 3.732L7.60801 6.07467C7.45632 6.1636 7.28853 6.22164 7.11431 6.24547C6.94009 6.26929 6.76288 6.25841 6.59289 6.21347C6.42289 6.16852 6.26346 6.09039 6.12377 5.98358C5.98409 5.87677 5.86692 5.74339 5.779 5.5911C5.69107 5.43882 5.63414 5.27066 5.61148 5.09628C5.58881 4.92191 5.60086 4.74478 5.64693 4.57508C5.693 4.40538 5.77219 4.24647 5.87992 4.1075C5.98766 3.96853 6.12182 3.85224 6.27468 3.76533L10.3333 1.42267C10.8401 1.13011 11.4149 0.976086 12 0.976086C12.5851 0.976086 13.1599 1.13011 13.6667 1.42267V1.424Z" fill="white"/>
</svg>
